<?xml version="1.0" encoding="utf-8"?>
<!-- Generator: Adobe Illustrator 16.0.3, SVG Export Plug-In . SVG Version: 6.00 Build 0)  -->
<!DOCTYPE svg PUBLIC "-//W3C//DTD SVG 1.1//EN" "http://www.w3.org/Graphics/SVG/1.1/DTD/svg11.dtd">
<svg version="1.1" xmlns="http://www.w3.org/2000/svg" xmlns:xlink="http://www.w3.org/1999/xlink" x="0px" y="0px"
	 width="40px" height="40px" viewBox="0 0 40 40" enable-background="new 0 0 40 40" xml:space="preserve">
<g>
	<path fill="#333333" d="M36.764,19.124c-0.08-7.299-1.865-13.749-2.49-15.381c-0.619-1.629-3.344-1.942-4.191-1.942H19.844H9.61
		c-0.848,0-3.574,0.312-4.196,1.942c-0.62,1.632-2.408,8.08-2.485,15.381C2.856,26.042,2.02,33.516,7.02,34.281
		c-0.001,0.018-0.004,0.031-0.004,0.052v2.179c0,1.143,0.482,2.064,1.08,2.064h2.214c0.596,0,1.08-0.924,1.08-2.064v-2.166h8.452
		h0.002h8.453v2.166c0,1.143,0.485,2.064,1.081,2.064h2.212c0.6,0,1.079-0.924,1.079-2.064v-2.179c0-0.021,0-0.034,0-0.052
		C37.671,33.516,36.835,26.042,36.764,19.124z M8.625,31.882c-0.889,0-1.609-0.724-1.609-1.612c0-0.888,0.721-1.61,1.609-1.61
		c0.893,0,1.613,0.724,1.613,1.61C10.238,31.158,9.518,31.882,8.625,31.882z M31.063,31.882c-0.89,0-1.61-0.724-1.61-1.612
		c0-0.888,0.722-1.61,1.61-1.61c0.89,0,1.607,0.724,1.607,1.61C32.671,31.158,31.952,31.882,31.063,31.882z M34.37,17.602
		c0,2.121-6.496,3.845-14.526,3.857C11.815,21.445,5.32,19.723,5.32,17.602H5.289c0.021-0.412,0.05-0.869,0.097-1.393
		C6.142,7.849,6.79,7.141,7.985,6.087c2.056-1.812,11.858-1.452,11.858-1.452s9.808-0.358,11.858,1.452
		c1.195,1.054,1.844,1.762,2.602,10.122c0.049,0.524,0.08,0.982,0.1,1.393H34.37z"/>
	<path fill="#333333" d="M23.773,5.13h-7.858c-0.453,0-0.82,0.366-0.82,0.822c0,0.454,0.367,0.822,0.82,0.822h7.858
		c0.453,0,0.822-0.368,0.822-0.822C24.596,5.497,24.225,5.13,23.773,5.13z"/>
</g>
</svg>
